<svg width="40" height="40" viewBox="0 0 40 40" fill="none" xmlns="http://www.w3.org/2000/svg">
<path d="M25.9619 40H25.7116C17.1658 40 13.0469 36.592 12.3347 28.9581C12.2578 28.1597 12.8352 27.4392 13.6436 27.3613C14.4135 27.2834 15.1449 27.8871 15.2218 28.6855C15.78 34.8004 18.6286 37.0789 25.7309 37.0789H25.9811C33.8148 37.0789 36.5864 34.2746 36.5864 26.3486V13.6514C36.5864 5.72541 33.8148 2.92113 25.9811 2.92113H25.7309C18.5901 2.92113 15.7415 5.23855 15.2218 11.4703C15.1256 12.2687 14.452 12.8724 13.6436 12.7945C12.8352 12.7361 12.2578 12.0156 12.3155 11.2171C12.9699 3.4664 17.1081 0 25.7116 0H25.9619C35.4123 0 39.4542 4.08958 39.4542 13.6514V26.3486C39.4542 35.9104 35.4123 40 25.9619 40Z" fill="#292D32"/>
<path d="M25.4973 21.4602H3.59394C2.8048 21.4602 2.15039 20.7981 2.15039 19.9996C2.15039 19.2012 2.8048 18.5391 3.59394 18.5391H25.4973C26.2865 18.5391 26.9409 19.2012 26.9409 19.9996C26.9409 20.7981 26.2865 21.4602 25.4973 21.4602Z" fill="#292D32"/>
<path d="M7.8866 27.9835C7.5209 27.9835 7.1552 27.8472 6.86649 27.5551L0.41863 21.0312C-0.139543 20.4665 -0.139543 19.5317 0.41863 18.967L6.86649 12.4431C7.42466 11.8783 8.34854 11.8783 8.90671 12.4431C9.46488 13.0078 9.46488 13.9426 8.90671 14.5074L3.47896 19.9991L8.90671 25.4908C9.46488 26.0556 9.46488 26.9903 8.90671 27.5551C8.63725 27.8472 8.2523 27.9835 7.8866 27.9835Z" fill="#292D32"/>
</svg>
