<svg width="100%" height="100%" viewBox="0 0 726 1051" fill="none" xmlns="http://www.w3.org/2000/svg">
<mask id="path-1-inside-1_3_21" fill="white">
<path d="M-12.0311 1074.7C183.425 1074.76 370.894 1018.22 509.136 917.515C647.377 816.809 725.066 680.188 725.112 537.706C725.158 395.224 647.557 258.553 509.381 157.758C371.206 56.9631 183.773 0.301644 -11.6834 0.238391L-11.8573 537.468L-12.0311 1074.7Z"/>
</mask>
<path d="M-12.0311 1074.7C183.425 1074.76 370.894 1018.22 509.136 917.515C647.377 816.809 725.066 680.188 725.112 537.706C725.158 395.224 647.557 258.553 509.381 157.758C371.206 56.9631 183.773 0.301644 -11.6834 0.238391L-11.8573 537.468L-12.0311 1074.7Z" fill="#D9D9D9" stroke="#D3C189" stroke-width="20" mask="url(#path-1-inside-1_3_21)"/>
</svg>
